# xmcd
#
# Track frame offsets: 
#        150
#        11559
#        20775
#        32335
#        40512
#        51222
#        62685
#        73922
#        83578
#        94318
#        105227
#        117381
#        129220
#        137989
#        149830
#        158828
#        168647
#        178251
#        189585
#        198742
#        208869
#        218413
#        230636
#        240071
#
# Disc length: 3370 seconds
#
# Revision: 0
# Processed by: cddbd v1.5.2PL0 Copyright (c) Steve Scherf et al.
# Submitted via: ExactAudioCopy v1.1
#
DISCID=570d2818
DTITLE=Jim Reeves - CD02_Milestones Of A Country Legend
DYEAR=2017
DGENRE=Country
TTITLE0=Teardrops in My Heart 
TTITLE1=I Get the Blues When It Rains
TTITLE2=You Belong to Me 
TTITLE3=Everywhere You Go
TTITLE4=Need Me
TTITLE5=I Care No More
TTITLE6=My Happiness
TTITLE7=Yours
TTITLE8=That's My Desire
TTITLE9=Blues in My Heart
TTITLE10=I Don't See Me In Your Eyes Anymore
TTITLE11=Final Affair
TTITLE12=Marie
TTITLE13=Mona Lisa
TTITLE14=My Juanita
TTITLE15=Charmaine
TTITLE16=Margie
TTITLE17=Anna Marie
TTITLE18=Sweet Sue Just You
TTITLE19=Linda
TTITLE20=Ramona
TTITLE21=Maria Elena
TTITLE22=My Mary
TTITLE23=Good Night Irene
EXTD=
EXTT0=
EXTT1=
EXTT2=
EXTT3=
EXTT4=
EXTT5=
EXTT6=
EXTT7=
EXTT8=
EXTT9=
EXTT10=
EXTT11=
EXTT12=
EXTT13=
EXTT14=
EXTT15=
EXTT16=
EXTT17=
EXTT18=
EXTT19=
EXTT20=
EXTT21=
EXTT22=
EXTT23=
PLAYORDER=
